<?xml version="1.0" standalone="no"?>
<!DOCTYPE svg PUBLIC "-//W3C//DTD SVG 20010904//EN"
 "http://www.w3.org/TR/2001/REC-SVG-20010904/DTD/svg10.dtd">
<svg version="1.0" xmlns="http://www.w3.org/2000/svg"
 width="1024.000000pt" height="1024.000000pt" viewBox="0 0 1024.000000 1024.000000"
 preserveAspectRatio="xMidYMid meet">
<metadata>
Created by potrace 1.11, written by Peter Selinger 2001-2013
</metadata>
<g transform="translate(0.000000,1024.000000) scale(0.100000,-0.100000)"
fill="#000000" stroke="none">
<path d="M2167 8963 c-4 -3 -23 -7 -44 -8 -31 -2 -78 -10 -113 -20 -40 -12
-160 -68 -160 -76 0 -4 -9 -11 -21 -14 -23 -8 -159 -139 -159 -154 0 -5 -6
-16 -14 -24 -8 -8 -47 -84 -86 -168 -40 -85 -94 -201 -122 -258 -27 -58 -50
-110 -51 -115 -1 -6 -4 -13 -7 -16 -16 -15 -86 -189 -97 -240 -9 -45 -9 -214
0 -264 24 -131 120 -283 238 -379 32 -27 201 -113 339 -173 36 -16 67 -32 68
-36 2 -4 9 -8 16 -8 7 0 41 -14 77 -31 35 -17 96 -46 134 -64 39 -17 97 -45
130 -61 33 -16 62 -29 65 -29 3 0 39 -17 80 -37 41 -20 109 -52 150 -71 139
-65 235 -109 300 -140 36 -17 67 -31 70 -32 3 -1 43 -19 90 -42 47 -22 110
-52 140 -66 53 -24 303 -140 460 -214 41 -19 102 -48 135 -63 33 -15 107 -50
165 -77 58 -27 121 -56 140 -63 19 -7 42 -19 50 -25 8 -7 27 -15 43 -19 15 -3
27 -11 27 -16 0 -6 7 -10 15 -10 8 0 23 -4 33 -10 9 -5 58 -28 107 -51 216
-100 281 -130 475 -221 58 -27 128 -59 155 -70 28 -12 57 -27 66 -35 8 -7 20
-13 26 -13 6 0 71 -29 144 -64 74 -35 157 -74 184 -86 28 -12 93 -43 145 -67
52 -25 124 -59 160 -75 36 -17 101 -47 145 -68 44 -21 94 -43 111 -51 30 -12
37 -39 11 -39 -5 0 -42 -15 -81 -34 -39 -19 -100 -48 -136 -64 -36 -16 -109
-50 -163 -75 -53 -26 -100 -46 -102 -47 -3 0 -31 -13 -62 -29 -32 -16 -85 -42
-118 -57 -84 -38 -237 -110 -320 -149 -38 -18 -95 -44 -125 -58 -30 -14 -93
-43 -140 -65 -47 -22 -121 -56 -165 -77 -44 -20 -118 -55 -165 -77 -47 -22
-114 -53 -150 -70 -36 -16 -72 -34 -80 -39 -8 -5 -22 -12 -30 -15 -8 -3 -33
-14 -56 -25 -23 -10 -46 -19 -53 -19 -6 0 -11 -4 -11 -10 0 -5 -3 -9 -7 -8 -8
2 -63 -22 -168 -74 -33 -16 -60 -28 -60 -26 0 1 -31 -14 -70 -34 -38 -20 -74
-37 -80 -39 -9 -2 -60 -25 -270 -124 -104 -49 -159 -73 -170 -75 -5 -1 -22
-11 -37 -21 -14 -10 -30 -19 -35 -19 -4 0 -55 -22 -111 -50 -56 -27 -105 -50
-107 -50 -2 0 -51 -22 -107 -49 -166 -79 -239 -111 -249 -111 -5 0 -9 -4 -9
-10 0 -5 -7 -10 -16 -10 -9 0 -33 -10 -53 -22 -20 -13 -38 -22 -41 -22 -3 0
-48 -19 -100 -44 -52 -24 -189 -88 -305 -142 -115 -54 -238 -111 -272 -128
-35 -17 -63 -28 -63 -25 0 4 -8 -1 -17 -9 -10 -9 -29 -19 -43 -23 -14 -4 -39
-18 -57 -31 -17 -13 -34 -24 -37 -24 -3 0 -14 -8 -25 -17 -82 -77 -101 -96
-101 -103 0 -4 -9 -18 -21 -31 -33 -38 -77 -131 -98 -210 -14 -54 -18 -97 -16
-173 2 -56 5 -110 8 -121 19 -72 62 -173 153 -359 13 -28 24 -55 24 -62 0 -6
7 -17 15 -24 9 -7 14 -15 11 -17 -2 -3 15 -44 39 -92 56 -113 78 -164 77 -173
-1 -5 1 -8 6 -8 4 0 13 -14 21 -32 34 -77 158 -194 258 -244 42 -22 77 -38 78
-36 0 2 14 -2 30 -8 39 -15 58 -19 129 -25 32 -3 62 -8 67 -11 5 -3 9 -1 9 3
0 5 14 8 30 7 17 -1 58 4 92 12 61 15 73 19 206 80 40 19 109 50 155 71 45 20
90 44 101 52 10 9 20 15 22 13 3 -2 24 5 47 16 134 63 200 92 208 92 5 0 9 5
9 12 0 6 3 8 6 5 4 -4 23 2 43 13 36 19 291 140 296 140 2 0 56 25 121 56 246
116 345 162 439 204 39 18 111 51 160 75 50 24 124 59 165 78 41 19 134 62
207 96 72 33 136 61 142 61 5 0 11 3 13 8 3 6 103 56 117 58 3 0 56 24 116 53
61 29 133 63 160 76 28 12 82 38 120 56 39 18 72 34 75 34 3 1 41 18 85 39 44
21 107 51 140 66 33 15 99 46 148 69 139 66 258 121 307 143 25 11 79 37 120
56 41 20 77 37 80 37 3 0 14 6 26 12 11 7 79 39 150 71 121 56 219 102 373
174 35 17 98 46 140 65 42 19 112 52 156 73 44 21 112 52 150 70 92 42 200 93
302 141 45 22 87 39 92 39 6 0 11 5 11 10 0 6 3 9 8 8 10 -2 30 7 158 68 62
29 140 66 175 83 35 16 105 48 154 71 50 23 110 51 135 62 25 11 88 41 140 65
141 66 172 81 200 92 14 6 32 15 40 20 8 5 40 21 70 37 30 15 60 32 65 36 6 5
21 18 35 29 14 12 34 29 45 38 36 28 103 124 134 191 59 127 61 150 58 640 -3
434 -4 447 -26 505 -32 85 -41 103 -83 165 -75 112 -143 168 -283 234 -38 18
-108 51 -155 74 -86 40 -178 83 -318 148 -42 20 -98 46 -124 59 -25 13 -49 21
-52 18 -3 -4 -6 -2 -6 3 0 5 -22 18 -50 29 -27 11 -50 23 -50 27 0 4 -7 5 -15
2 -8 -4 -15 -1 -15 5 0 6 -4 11 -9 11 -5 0 -54 21 -108 46 -54 25 -132 62
-173 81 -41 19 -102 48 -135 63 -33 16 -94 44 -135 63 -77 36 -216 100 -305
142 -310 146 -353 165 -365 165 -6 0 -10 5 -10 10 0 6 -6 10 -13 10 -6 0 -45
16 -84 35 -40 19 -76 36 -80 37 -5 1 -28 11 -53 24 -25 12 -74 36 -110 52 -36
16 -114 53 -175 82 -113 54 -196 92 -205 95 -3 1 -40 18 -82 38 -77 37 -137
65 -313 146 -49 24 -115 54 -145 69 -30 15 -57 27 -60 27 -3 0 -39 17 -80 36
-123 59 -210 99 -218 99 -5 0 -14 6 -20 13 -7 6 -16 12 -20 13 -4 0 -29 11
-57 23 -118 55 -262 123 -290 136 -16 8 -73 34 -125 58 -153 71 -218 102 -343
161 -65 31 -120 56 -122 56 -1 0 -56 25 -121 56 -238 112 -263 124 -328 154
-36 16 -94 43 -128 59 -35 16 -106 49 -158 74 -52 24 -120 56 -150 70 -30 13
-95 44 -145 68 -49 23 -92 43 -95 44 -3 0 -43 19 -90 41 -47 22 -114 53 -150
69 -36 16 -71 33 -79 39 -7 6 -18 11 -25 13 -6 1 -43 14 -82 27 -39 14 -101
28 -138 30 -37 3 -71 8 -75 10 -5 3 -11 3 -14 -1z"/>
</g>
</svg>
