<?xml version="1.0" standalone="no"?>
<!DOCTYPE svg PUBLIC "-//W3C//DTD SVG 20010904//EN"
 "http://www.w3.org/TR/2001/REC-SVG-20010904/DTD/svg10.dtd">
<svg version="1.0" xmlns="http://www.w3.org/2000/svg"
 width="1024.000000pt" height="1024.000000pt" viewBox="0 0 1024.000000 1024.000000"
 preserveAspectRatio="xMidYMid meet">
<metadata>
Created by potrace 1.11, written by Peter Selinger 2001-2013
</metadata>
<g transform="translate(0.000000,1024.000000) scale(0.100000,-0.100000)"
fill="#000000" stroke="none">
<path d="M1415 10220 c-193 -45 -340 -126 -478 -263 -72 -71 -117 -123 -117
-132 0 -3 -15 -26 -33 -52 -57 -81 -107 -207 -134 -338 -4 -22 -8 -1968 -8
-4325 0 -4064 1 -4288 18 -4350 9 -36 19 -73 21 -82 3 -9 10 -26 16 -37 6 -12
8 -21 4 -21 -4 0 0 -8 9 -17 8 -10 19 -30 22 -45 4 -16 11 -28 16 -28 5 0 9
-6 9 -13 0 -11 51 -92 88 -140 27 -33 144 -149 182 -179 33 -26 158 -102 170
-104 3 0 27 -10 53 -22 27 -12 54 -22 61 -22 7 0 17 -5 24 -12 7 -7 12 -9 12
-5 0 3 12 2 27 -4 15 -6 50 -13 78 -17 67 -9 7291 -9 7335 0 19 4 44 10 56 12
12 2 54 16 95 31 41 15 82 29 92 32 9 3 17 9 17 14 0 5 6 9 13 9 12 0 126 69
157 96 204 174 321 366 365 599 13 67 15 616 12 4339 -1 2343 -5 4272 -9 4286
-3 14 -9 40 -12 59 -8 39 -59 171 -84 217 -9 17 -27 50 -40 73 -12 22 -27 41
-32 41 -6 0 -10 7 -10 15 0 8 -4 15 -10 15 -5 0 -10 5 -10 11 0 35 -236 232
-330 276 -90 41 -118 53 -128 53 -7 0 -20 4 -30 10 -9 5 -53 16 -97 24 -70 13
-552 15 -3695 15 -3482 -1 -3618 -1 -3695 -19z m838 -1263 c8 7 80 8 93 1 5
-3 18 -2 29 2 11 4 30 4 42 -1 12 -5 25 -4 28 1 3 5 18 5 35 0 17 -5 30 -6 30
-2 0 8 85 6 106 -2 8 -3 14 -2 14 2 0 8 62 8 76 0 5 -3 18 -2 29 2 11 4 30 4
42 -1 12 -5 25 -4 28 1 3 5 18 5 35 0 17 -5 30 -6 30 -2 0 8 62 8 76 0 5 -3
18 -2 29 2 11 4 30 4 42 -1 12 -5 25 -4 28 1 3 5 18 5 35 0 17 -5 30 -6 30 -2
0 8 62 8 76 0 5 -3 18 -2 29 2 11 4 30 4 42 -1 12 -5 25 -4 28 1 3 5 18 5 35
0 17 -5 30 -6 30 -2 0 8 62 8 76 0 5 -3 18 -2 29 2 11 4 29 4 41 0 11 -5 27
-5 34 0 7 5 23 4 36 0 12 -5 25 -6 28 -3 8 8 76 9 76 1 0 -4 13 -3 29 2 15 4
34 4 41 0 7 -5 23 -4 36 0 12 5 24 6 27 4 9 -9 55 -11 68 -4 6 4 25 4 40 0 16
-5 29 -6 29 -2 0 8 134 7 147 -1 5 -3 15 -2 22 3 8 4 26 4 41 0 15 -4 33 -4
40 0 7 4 26 4 41 0 16 -5 29 -6 29 -2 0 8 134 7 147 -1 5 -3 15 -2 22 3 8 4
26 4 41 0 15 -4 33 -4 40 0 7 4 26 4 41 0 16 -5 29 -6 29 -2 0 8 134 7 147 -1
5 -3 15 -2 22 3 8 4 26 4 41 0 15 -4 33 -4 40 0 7 4 26 4 41 0 16 -5 29 -6 29
-2 0 4 33 6 72 4 40 -1 80 -2 88 -2 8 0 41 0 72 1 32 0 62 -2 68 -6 5 -3 10
-3 10 2 0 4 29 8 65 8 36 0 65 -3 65 -7 0 -4 12 -3 28 1 15 5 36 5 47 1 11 -4
24 -5 29 -2 13 7 136 8 136 0 0 -4 12 -3 28 1 15 5 36 5 47 1 11 -4 24 -5 29
-2 13 7 136 8 136 0 0 -4 12 -3 28 1 15 5 36 5 47 1 11 -4 24 -5 29 -2 13 7
136 8 136 0 0 -4 12 -3 28 1 15 5 36 5 47 1 11 -4 24 -5 29 -2 13 7 136 8 136
0 0 -4 12 -3 28 1 15 5 36 5 47 1 11 -4 24 -5 29 -2 15 8 76 8 76 -1 0 -5 5
-5 10 -2 6 4 34 6 63 6 29 -1 59 -1 67 -1 8 0 48 0 88 1 39 1 75 0 78 -4 3 -3
16 -2 28 3 13 4 29 4 36 0 8 -5 18 -6 23 -3 12 7 146 8 153 0 3 -3 16 -2 28 3
13 4 29 4 36 0 8 -5 18 -6 23 -3 12 7 146 8 153 0 3 -3 16 -2 28 3 13 4 29 5
36 0 7 -4 23 -5 34 0 11 4 33 4 48 -1 16 -4 28 -5 28 -1 0 4 16 7 35 7 19 0
35 -3 35 -7 0 -4 13 -3 30 2 16 5 32 5 35 0 3 -5 18 -5 34 0 16 4 31 7 33 5 9
-9 56 -12 68 -5 7 4 26 4 41 0 16 -5 29 -6 29 -2 0 8 134 7 147 -1 5 -3 15 -2
22 2 7 5 28 5 47 1 19 -5 37 -4 40 1 3 5 9 7 14 4 4 -3 23 -7 41 -9 55 -7 103
-32 148 -77 47 -48 71 -95 76 -152 2 -21 6 -41 9 -44 3 -3 1 -13 -4 -22 -5
-10 -5 -23 0 -31 5 -8 5 -21 0 -30 -5 -9 -5 -22 0 -30 5 -8 5 -21 0 -30 -5 -9
-5 -22 0 -29 4 -8 4 -27 0 -42 -5 -16 -5 -29 0 -29 5 0 5 -13 0 -30 -5 -16 -6
-30 -2 -30 8 0 7 -84 -1 -97 -3 -5 -2 -15 3 -23 4 -7 4 -24 0 -36 -6 -14 -5
-26 0 -29 5 -3 5 -18 0 -34 -4 -15 -4 -34 0 -41 5 -7 4 -24 0 -36 -6 -14 -5
-26 0 -29 6 -4 7 -13 1 -24 -6 -10 -6 -23 -1 -31 5 -8 5 -21 0 -30 -5 -9 -5
-22 0 -30 4 -7 4 -24 0 -36 -6 -14 -5 -26 0 -29 5 -3 5 -18 0 -34 -4 -15 -4
-34 0 -41 5 -7 4 -24 0 -36 -6 -14 -5 -26 0 -29 6 -4 7 -13 1 -24 -6 -10 -6
-23 -1 -31 5 -8 5 -21 0 -30 -5 -9 -5 -22 0 -30 4 -7 4 -24 0 -36 -6 -14 -5
-26 0 -29 5 -3 5 -18 0 -34 -4 -15 -4 -34 0 -41 5 -7 4 -24 0 -36 -6 -14 -5
-26 0 -29 6 -4 7 -13 1 -24 -6 -10 -6 -23 -1 -31 5 -8 5 -21 0 -30 -5 -9 -5
-22 0 -30 4 -7 4 -24 0 -36 -6 -14 -5 -26 0 -29 5 -3 5 -18 0 -34 -4 -15 -4
-34 0 -41 5 -7 4 -24 0 -36 -6 -14 -5 -26 1 -29 5 -4 7 -11 3 -16 -7 -13 -11
-99 -4 -99 3 0 4 -15 3 -32 -2 -38 -3 -85 -3 -110 0 -10 0 -25 0 -33 0 -8 0
-22 0 -30 0 -8 0 -22 0 -30 0 -8 0 -22 0 -30 0 -8 0 -22 0 -30 0 -8 0 -21 1
-27 0 -7 -2 -24 -6 -38 -3 -14 -7 -29 -9 -35 -11 -46 -95 -145 -123 -145 -7 0
-13 -4 -13 -8 0 -12 -60 -29 -98 -28 -18 1 -32 -2 -32 -6 0 -4 -12 -3 -28 1
-15 5 -37 4 -50 0 -12 -5 -22 -4 -22 1 0 5 -13 5 -30 0 -16 -5 -32 -5 -35 0
-3 5 -19 5 -35 0 -16 -5 -32 -5 -35 0 -3 5 -19 5 -35 0 -17 -5 -32 -5 -35 0
-3 5 -13 6 -21 3 -25 -9 -57 -10 -81 -1 -13 4 -25 3 -28 -2 -4 -7 -13 -7 -24
0 -10 5 -21 7 -24 3 -9 -8 -1253 -7 -1266 1 -6 4 -11 4 -11 -1 0 -9 -67 -9
-76 0 -3 3 -17 2 -30 -3 -14 -6 -26 -6 -29 0 -3 6 -15 6 -30 0 -15 -6 -27 -6
-30 0 -3 6 -15 6 -30 0 -15 -6 -27 -6 -30 0 -3 6 -15 6 -30 0 -15 -6 -27 -6
-30 0 -3 6 -15 6 -30 0 -15 -6 -27 -6 -30 0 -3 6 -15 6 -30 0 -15 -6 -27 -6
-30 0 -3 6 -15 6 -30 0 -15 -6 -27 -6 -30 0 -3 6 -15 6 -30 0 -15 -6 -27 -6
-30 0 -3 6 -15 6 -30 0 -15 -6 -27 -6 -30 0 -3 6 -15 6 -30 0 -15 -6 -27 -6
-30 0 -3 6 -15 6 -30 0 -15 -6 -27 -6 -30 0 -3 6 -15 6 -30 0 -15 -6 -27 -6
-30 0 -3 6 -15 6 -30 0 -15 -6 -27 -6 -30 0 -3 6 -15 6 -30 0 -15 -6 -27 -6
-30 0 -3 6 -15 6 -30 0 -15 -6 -27 -6 -30 0 -3 6 -15 6 -30 0 -15 -6 -27 -6
-30 0 -3 6 -15 6 -30 0 -13 -5 -26 -6 -29 -2 -3 5 -30 5 -61 2 -31 -3 -58 -3
-61 2 -3 4 -16 3 -29 -2 -15 -6 -27 -6 -30 0 -3 6 -15 6 -30 0 -15 -6 -27 -6
-30 0 -3 6 -15 6 -30 0 -15 -6 -27 -6 -30 0 -3 6 -15 6 -30 0 -15 -6 -27 -6
-30 0 -3 6 -15 6 -30 0 -15 -6 -27 -6 -30 0 -3 6 -15 6 -30 0 -15 -6 -27 -6
-30 0 -3 6 -15 6 -30 0 -15 -6 -27 -6 -30 0 -3 6 -15 6 -30 0 -15 -6 -27 -6
-30 0 -3 6 -15 6 -30 0 -15 -6 -27 -6 -30 0 -3 6 -15 6 -30 0 -15 -6 -27 -6
-30 0 -3 6 -15 6 -30 0 -15 -6 -27 -6 -30 0 -3 6 -15 6 -30 0 -15 -6 -27 -6
-30 0 -3 6 -15 6 -30 0 -15 -6 -27 -6 -30 0 -3 6 -15 6 -30 0 -15 -6 -27 -6
-30 0 -3 6 -15 6 -30 0 -15 -6 -27 -6 -30 0 -3 6 -15 6 -30 0 -15 -6 -27 -6
-30 0 -3 6 -15 6 -30 0 -14 -5 -27 -5 -30 0 -3 5 -18 5 -35 0 -19 -5 -30 -5
-30 1 0 6 -5 7 -11 3 -13 -8 -1237 -9 -1246 -1 -3 4 -13 2 -22 -3 -10 -5 -23
-5 -31 0 -8 5 -21 5 -30 0 -9 -5 -22 -5 -28 -1 -7 4 -33 5 -58 1 -24 -4 -47
-3 -50 1 -2 5 -16 4 -29 -1 -15 -6 -27 -6 -30 0 -3 6 -15 6 -30 0 -15 -6 -27
-6 -30 0 -3 6 -15 6 -30 0 -15 -6 -27 -6 -30 0 -3 6 -15 6 -30 0 -15 -6 -27
-6 -30 0 -3 6 -15 6 -29 0 -13 -5 -27 -6 -30 -3 -3 4 -25 7 -48 8 -24 2 -44 3
-45 4 -2 0 -6 2 -10 2 -31 6 -133 90 -133 109 0 6 -4 10 -8 10 -9 0 -29 52
-37 98 -8 45 -8 46 -5 52 5 15 4 80 -2 80 -4 0 -3 14 2 30 5 17 5 30 0 30 -5
0 -5 13 0 30 5 17 5 30 0 30 -5 0 -5 13 0 30 5 17 5 30 0 30 -5 0 -5 13 0 30
5 17 5 30 0 30 -5 0 -5 13 0 30 5 17 5 30 0 30 -5 0 -5 13 0 29 4 15 4 34 0
42 -5 7 -4 21 1 30 6 11 5 20 -1 24 -5 3 -6 15 0 29 4 12 4 29 0 36 -5 8 -4
22 1 31 6 11 5 20 -1 24 -5 3 -6 15 -1 28 5 12 5 34 0 49 -4 16 -4 28 1 28 5
0 5 13 0 30 -5 17 -5 30 0 30 5 0 5 12 1 28 -5 15 -5 37 0 49 5 13 4 25 -1 28
-6 4 -7 13 -1 24 5 9 6 23 2 30 -5 7 -5 30 -1 51 4 21 4 44 -1 51 -4 7 -3 21
2 30 6 11 5 20 -1 24 -5 3 -6 15 -1 28 5 12 5 34 0 49 -4 16 -4 28 1 28 5 0 5
13 0 30 -5 17 -5 30 0 30 5 0 5 13 0 30 -5 17 -5 32 0 35 5 3 5 16 0 30 -6 15
-6 27 0 30 6 3 6 15 0 30 -6 15 -6 27 0 30 6 3 6 15 0 30 -6 15 -6 27 0 30 5
3 6 15 1 28 -5 12 -5 34 0 49 4 16 4 28 -1 28 -5 0 -5 13 0 30 5 17 5 30 0 30
-5 0 -5 13 0 30 5 17 5 30 0 30 -5 0 -5 13 0 30 5 17 5 30 0 30 -5 0 -5 13 0
30 5 17 5 30 0 30 -5 0 -5 13 0 30 5 17 6 30 2 30 -8 0 -8 68 1 76 3 3 1 19
-3 35 -5 17 -5 31 1 35 5 3 7 10 4 15 -4 5 -1 9 4 9 6 0 11 7 11 15 0 37 78
122 137 150 19 9 55 19 81 22 26 2 49 6 51 9 2 2 11 -1 21 -6 10 -5 20 -7 23
-3z m169 -3842 c3 4 107 6 148 4 8 -1 44 -1 80 0 36 0 72 0 80 0 19 -1 175 0
214 1 52 1 125 -32 172 -79 49 -48 72 -94 80 -156 8 -59 10 -205 3 -205 -7 0
-3 -55 5 -69 4 -5 2 -12 -3 -16 -7 -4 -7 -15 -1 -30 6 -16 6 -25 0 -25 -6 0
-6 -9 -1 -22 11 -30 11 -39 0 -60 -7 -12 -6 -18 1 -18 8 0 8 -6 0 -20 -8 -14
-8 -20 0 -20 8 0 8 -6 0 -20 -8 -14 -8 -20 0 -20 8 0 8 -6 0 -20 -8 -14 -8
-20 0 -20 8 0 8 -6 0 -20 -8 -14 -8 -20 0 -20 8 0 8 -6 0 -20 -8 -14 -8 -20 0
-20 8 0 8 -6 0 -20 -8 -14 -8 -20 0 -20 8 0 8 -6 0 -20 -8 -14 -8 -20 0 -20 8
0 8 -6 0 -20 -8 -14 -8 -20 0 -20 6 0 8 -5 4 -11 -3 -6 -8 -26 -10 -44 -3 -39
-33 -99 -66 -136 -23 -26 -108 -84 -108 -74 0 4 -6 3 -12 -2 -22 -13 -38 -15
-119 -12 -26 1 -50 -1 -56 -4 -5 -3 -15 -2 -22 2 -7 5 -27 5 -44 1 -18 -3 -47
-3 -64 1 -18 4 -33 3 -33 -1 0 -5 -12 -5 -27 -1 -16 4 -44 4 -64 1 -19 -4 -44
-3 -55 0 -10 4 -26 4 -35 -1 -8 -4 -21 -4 -28 1 -8 4 -25 4 -40 0 -14 -4 -35
-4 -46 0 -11 4 -32 4 -47 -1 -16 -4 -28 -5 -28 -1 0 4 -16 7 -35 7 -19 0 -35
-4 -35 -8 0 -5 -4 -6 -8 -3 -5 3 -31 7 -58 10 -85 8 -148 47 -200 121 -22 32
-47 96 -40 103 3 2 1 15 -4 28 -6 14 -6 24 0 24 5 0 5 12 0 28 -4 16 -4 35 1
43 4 8 4 21 -1 29 -4 7 -4 24 0 36 6 14 5 26 0 29 -5 3 -5 18 0 34 4 15 4 34
0 41 -5 7 -4 24 0 36 6 14 5 26 -1 29 -5 4 -7 11 -3 16 7 13 11 99 4 99 -3 0
-4 15 -3 33 2 37 3 84 3 110 0 9 0 24 0 32 0 8 0 22 0 30 0 8 0 22 0 30 0 8 0
22 0 30 0 8 0 23 0 33 0 9 0 24 0 32 0 12 5 43 9 58 1 1 2 5 2 10 4 16 52 86
78 111 55 52 105 67 235 70 66 1 122 3 124 6 2 2 14 0 27 -5 13 -5 25 -7 27
-5z m2561 2 c7 7 296 5 307 -2 6 -4 10 -1 10 5 0 6 4 9 8 6 5 -3 57 -6 117 -7
123 -2 161 -10 212 -44 68 -47 109 -113 118 -191 4 -26 8 -50 9 -53 2 -3 0
-15 -4 -26 -4 -11 -4 -32 1 -47 4 -15 4 -30 0 -33 -5 -2 -5 -23 -1 -45 4 -22
4 -40 0 -40 -4 0 -4 -18 0 -40 4 -22 4 -43 0 -45 -5 -3 -5 -17 -1 -33 4 -15 5
-39 0 -53 -4 -15 -3 -32 1 -39 4 -7 4 -25 0 -40 -4 -15 -4 -33 0 -40 4 -6 4
-27 0 -45 -4 -18 -4 -38 0 -45 4 -6 4 -29 0 -51 -4 -21 -5 -39 -1 -39 15 0 0
-116 -22 -164 -26 -56 -89 -122 -135 -141 -56 -24 -90 -32 -102 -25 -7 4 -24
4 -39 0 -14 -4 -35 -4 -46 0 -11 4 -32 4 -47 -1 -16 -4 -28 -5 -28 -1 0 4 -29
7 -65 7 -36 0 -65 -3 -65 -7 0 -3 -12 -3 -27 1 -16 4 -39 5 -53 1 -14 -4 -34
-4 -45 0 -11 4 -27 4 -36 -1 -8 -4 -21 -4 -28 1 -8 4 -25 4 -40 0 -14 -4 -35
-4 -46 0 -11 4 -32 4 -47 -1 -16 -4 -28 -5 -28 -1 0 4 -16 7 -35 7 -19 0 -35
-4 -35 -8 0 -5 -4 -6 -8 -3 -5 3 -31 7 -58 10 -85 8 -148 46 -201 122 -24 34
-57 134 -44 134 5 0 5 17 1 38 -3 20 -3 49 1 63 3 15 3 32 -1 39 -4 7 -4 25 0
40 4 15 4 33 0 40 -4 7 -4 25 0 40 4 15 4 33 0 40 -4 7 -4 26 0 42 11 35 11
26 1 69 -5 21 -5 43 -1 50 5 7 5 22 0 34 -5 12 -5 27 0 34 4 7 4 28 0 47 -4
19 -4 36 0 39 4 2 4 23 0 45 -4 21 -5 41 -3 44 3 2 6 33 7 68 4 95 63 180 157
224 36 17 66 21 163 23 66 1 122 3 124 6 2 2 14 0 27 -5 13 -5 25 -6 28 -3z
m2532 1 c3 3 321 3 520 1 87 -2 144 -23 199 -76 48 -45 75 -95 82 -149 2 -20
7 -40 10 -45 3 -5 1 -9 -5 -9 -6 0 -6 -11 -1 -29 4 -15 4 -34 0 -42 -5 -7 -5
-20 0 -28 4 -8 4 -25 -1 -38 -5 -13 -4 -25 1 -28 5 -3 5 -18 0 -34 -4 -15 -4
-34 0 -41 5 -7 4 -24 0 -36 -6 -14 -5 -26 1 -29 5 -4 7 -11 3 -16 -8 -13 -11
-99 -4 -99 6 0 3 -89 -4 -106 -2 -6 0 -17 4 -24 5 -8 5 -21 0 -30 -5 -9 -5
-22 0 -30 5 -8 5 -21 0 -30 -5 -9 -5 -22 0 -30 5 -8 5 -21 0 -30 -5 -9 -5 -22
0 -30 5 -8 5 -21 0 -30 -5 -9 -5 -22 0 -30 5 -8 5 -21 0 -30 -5 -9 -5 -22 0
-30 5 -8 5 -21 0 -30 -5 -9 -5 -22 0 -30 5 -8 5 -21 0 -30 -5 -9 -5 -22 0 -30
5 -8 5 -21 0 -30 -5 -9 -5 -22 0 -30 5 -8 5 -21 0 -30 -5 -9 -5 -22 0 -30 5
-8 5 -21 0 -30 -5 -9 -5 -22 0 -30 5 -8 5 -21 0 -30 -5 -9 -5 -22 0 -30 5 -8
5 -21 0 -30 -5 -9 -5 -22 0 -30 5 -8 5 -21 0 -30 -5 -9 -5 -22 0 -30 5 -8 5
-21 0 -30 -5 -9 -5 -22 0 -30 5 -8 5 -21 0 -30 -5 -9 -5 -22 0 -29 4 -8 4 -27
0 -42 -5 -16 -5 -29 0 -29 5 0 5 -13 0 -30 -5 -16 -6 -30 -2 -30 8 0 7 -84 -1
-97 -3 -5 -2 -15 3 -23 4 -7 4 -24 0 -36 -6 -14 -5 -26 0 -29 5 -3 5 -18 0
-34 -4 -15 -4 -34 0 -41 5 -7 4 -24 0 -36 -6 -14 -5 -26 0 -29 6 -4 7 -13 1
-24 -6 -10 -6 -23 -1 -31 5 -8 5 -21 0 -30 -5 -9 -5 -22 0 -30 4 -7 4 -24 0
-36 -6 -14 -5 -26 0 -29 5 -3 5 -18 0 -34 -4 -15 -4 -34 0 -41 5 -7 4 -24 0
-36 -6 -14 -5 -26 0 -29 6 -4 7 -13 1 -24 -6 -10 -6 -23 -1 -31 5 -8 5 -21 0
-30 -5 -9 -5 -22 0 -30 4 -7 4 -24 0 -36 -6 -14 -5 -26 0 -29 5 -3 5 -18 0
-34 -4 -15 -4 -34 0 -41 5 -7 4 -24 0 -36 -6 -14 -5 -26 0 -29 6 -4 7 -13 1
-24 -6 -10 -6 -23 -1 -31 5 -8 5 -21 0 -30 -5 -9 -5 -22 0 -30 4 -7 4 -24 0
-36 -6 -14 -5 -26 0 -29 5 -3 5 -18 0 -34 -4 -15 -4 -34 0 -41 5 -7 4 -24 0
-36 -6 -14 -5 -26 1 -29 5 -4 7 -11 3 -16 -7 -13 -11 -99 -4 -99 3 0 4 -15 3
-32 -2 -38 -3 -85 -3 -110 0 -10 0 -25 0 -33 0 -8 0 -22 0 -30 0 -8 0 -22 0
-30 0 -8 0 -22 0 -30 0 -8 0 -22 0 -30 0 -8 0 -21 1 -27 0 -7 -2 -24 -6 -38
-3 -14 -7 -29 -9 -35 -11 -46 -95 -145 -123 -145 -7 0 -13 -4 -13 -8 0 -12
-60 -29 -98 -28 -18 1 -32 -2 -32 -6 0 -4 -12 -3 -28 1 -15 5 -37 4 -50 0 -12
-5 -22 -4 -22 1 0 5 -13 5 -30 0 -16 -5 -32 -5 -35 0 -3 5 -19 5 -35 0 -16 -5
-32 -5 -35 0 -3 5 -19 5 -35 0 -17 -5 -32 -5 -35 0 -3 5 -13 6 -21 3 -25 -9
-57 -10 -81 -1 -13 4 -25 3 -28 -2 -4 -7 -13 -7 -24 0 -10 5 -21 6 -25 3 -7
-7 -186 -7 -193 1 -3 2 -15 1 -28 -4 -13 -5 -26 -6 -29 -3 -3 4 -21 7 -38 9
-76 6 -168 75 -202 152 -10 20 -21 45 -27 54 -5 10 -6 18 -2 18 5 0 8 11 8 25
0 14 -4 25 -8 25 -4 0 -3 9 3 20 8 14 8 20 0 20 -8 0 -8 6 0 20 8 14 8 20 0
20 -8 0 -8 6 0 20 8 14 8 20 0 20 -8 0 -8 6 0 20 8 14 8 20 0 20 -8 0 -8 6 0
20 8 14 8 20 0 20 -8 0 -8 6 0 20 8 14 8 20 0 20 -8 0 -8 6 0 20 8 14 8 20 0
20 -8 0 -8 6 0 20 8 14 8 20 0 20 -7 0 -7 7 1 22 7 13 12 23 11 23 0 0 -5 12
-11 28 -6 16 -7 27 -1 27 6 0 6 9 0 25 -6 15 -6 26 1 30 6 4 6 13 0 23 -6 10
-6 23 0 34 7 12 6 18 -1 18 -7 0 -8 6 -1 17 6 11 6 24 0 35 -6 10 -5 19 1 23
7 4 7 12 0 25 -7 13 -7 21 0 25 7 4 7 12 0 25 -6 12 -7 21 0 25 5 3 6 15 1 28
-5 13 -5 30 0 39 6 11 5 19 -1 23 -7 4 -7 12 0 25 7 13 7 21 0 25 -7 4 -7 13
0 26 7 12 7 19 1 19 -6 0 -6 11 -1 30 5 17 5 30 0 30 -5 0 -5 13 0 30 5 19 5
30 -1 30 -7 0 -7 6 0 17 6 11 6 24 0 35 -6 10 -5 19 1 23 7 4 7 12 0 25 -7 13
-7 21 0 25 7 4 7 12 0 25 -6 12 -7 21 0 25 5 3 6 15 1 28 -5 13 -5 30 0 39 6
11 5 19 -1 23 -7 4 -7 12 0 25 7 13 7 21 0 25 -7 4 -7 13 0 26 7 12 7 19 1 19
-6 0 -6 11 -1 30 5 19 5 30 -1 30 -7 0 -7 6 0 17 6 11 6 24 0 35 -6 10 -5 19
1 23 6 4 6 15 0 30 -6 16 -6 25 0 25 6 0 5 11 -1 28 -6 15 -11 27 -11 27 -1 0
4 10 11 23 8 15 8 22 1 22 -8 0 -8 6 0 20 8 14 8 20 0 20 -8 0 -8 6 0 20 8 14
8 20 0 20 -8 0 -8 6 0 20 8 14 8 20 0 20 -8 0 -8 6 0 20 8 14 8 20 0 20 -8 0
-8 6 0 20 8 14 8 20 0 20 -8 0 -8 6 0 20 8 14 8 20 0 20 -8 0 -8 6 0 20 8 14
8 20 0 20 -8 0 -8 6 0 20 8 14 8 20 0 20 -8 0 -8 6 0 20 8 14 8 20 0 20 -8 0
-8 6 0 20 8 14 8 20 0 20 -8 0 -8 6 0 20 8 14 8 20 0 20 -8 0 -8 6 0 20 8 14
8 20 0 20 -8 0 -8 6 0 20 8 14 8 20 0 20 -8 0 -8 6 0 20 8 14 8 20 0 20 -7 0
-8 6 -1 18 11 21 11 33 0 54 -6 10 -5 19 1 23 6 3 6 15 0 30 -6 15 -6 27 0 30
6 4 7 13 1 24 -6 10 -6 23 -1 31 5 9 5 19 -1 26 -7 8 -6 14 1 19 7 4 7 12 0
25 -7 13 -7 21 0 25 7 5 8 11 1 19 -6 7 -6 17 -1 26 5 8 5 21 -1 31 -6 11 -5
20 1 24 5 3 6 15 1 28 -5 13 -5 30 0 39 6 11 5 19 -1 23 -7 4 -7 12 0 25 7 13
7 21 0 25 -6 4 -7 13 -1 24 6 10 6 23 1 31 -5 8 -5 21 0 31 5 9 6 19 3 23 -7
7 -10 66 -3 66 3 0 5 14 5 30 0 17 -3 30 -7 30 -4 0 -3 11 2 25 5 14 6 25 2
25 -9 0 -6 75 3 90 3 6 2 10 -4 10 -7 0 -7 8 -1 26 6 15 6 23 1 19 -6 -3 -6 6
-1 25 5 19 5 30 -1 30 -6 0 -8 4 -4 9 3 5 7 27 9 49 5 52 29 100 72 146 50 53
104 78 182 84 37 2 68 5 69 6 1 1 34 -1 73 -4 39 -3 73 -4 75 -2z m-5294
-2563 c14 9 113 10 127 1 7 -4 12 -3 12 3 0 7 8 7 25 1 16 -6 25 -6 25 0 0 6
10 6 26 0 14 -6 23 -7 21 -2 -3 4 10 7 28 7 18 0 31 -4 28 -9 -4 -5 0 -6 7 -1
15 9 114 10 129 0 6 -3 11 -3 11 2 0 4 11 8 25 8 14 0 25 -3 25 -7 0 -4 11 -3
25 2 15 6 26 6 30 -1 4 -5 11 -6 17 -3 16 10 67 11 61 2 -2 -5 7 -4 21 2 16 6
26 6 26 0 0 -6 9 -6 24 0 13 5 27 6 30 3 3 -4 23 -8 44 -10 20 -2 48 -11 62
-20 14 -9 27 -17 29 -17 3 -1 19 -15 37 -33 33 -32 67 -86 71 -113 4 -31 14
-74 19 -82 3 -4 0 -8 -6 -8 -8 0 -8 -6 0 -20 6 -12 7 -20 1 -20 -5 0 -6 -12
-2 -27 4 -16 4 -40 0 -55 -4 -16 -4 -28 1 -28 6 0 6 -10 0 -25 -6 -16 -6 -25
0 -25 6 0 6 -9 0 -25 -5 -14 -6 -25 -2 -25 4 0 7 -13 7 -30 0 -16 -3 -30 -7
-30 -4 0 -3 -11 2 -25 6 -16 6 -25 -1 -25 -6 0 -6 -7 1 -19 6 -13 7 -22 0 -26
-5 -3 -6 -15 -1 -28 5 -13 5 -30 0 -39 -6 -11 -5 -19 1 -23 7 -4 7 -12 0 -25
-7 -13 -7 -21 0 -25 6 -4 7 -13 1 -24 -6 -10 -6 -23 -1 -31 5 -8 5 -21 -1 -31
-6 -11 -5 -20 1 -24 6 -4 6 -15 0 -30 -6 -16 -6 -25 1 -25 6 0 6 -7 -1 -19 -7
-14 -7 -22 1 -27 8 -4 8 -9 0 -17 -6 -6 -11 -19 -11 -28 0 -45 -77 -137 -141
-170 -23 -11 -59 -23 -82 -25 -22 -3 -44 -7 -48 -10 -4 -2 -10 0 -14 5 -4 7
-15 7 -30 1 -15 -6 -25 -6 -25 0 0 5 -12 5 -28 1 -15 -5 -37 -5 -49 0 -13 5
-25 4 -28 -1 -3 -6 -15 -6 -30 0 -15 6 -27 6 -30 0 -3 -6 -15 -6 -30 0 -15 6
-27 6 -30 0 -3 -6 -15 -6 -30 0 -15 6 -27 6 -30 0 -3 -6 -15 -6 -30 0 -15 6
-27 6 -30 0 -3 -6 -15 -6 -30 0 -15 6 -27 6 -30 0 -3 -6 -15 -6 -30 0 -15 6
-27 6 -30 0 -3 -6 -15 -6 -30 0 -15 6 -27 6 -30 0 -3 -6 -15 -6 -30 0 -15 6
-27 6 -30 0 -3 -6 -15 -6 -30 0 -15 6 -27 6 -30 -1 -4 -5 -10 -7 -15 -4 -4 2
-25 7 -46 11 -46 7 -99 33 -135 66 -24 21 -72 92 -75 111 -1 4 -2 8 -3 10 -10
12 -18 138 -9 143 4 3 3 16 -2 29 -6 15 -6 27 0 30 6 3 6 15 0 30 -6 15 -6 27
0 30 6 3 6 15 0 30 -6 15 -6 27 0 30 5 3 6 15 1 28 -5 12 -5 34 0 49 4 16 4
28 -1 28 -5 0 -5 13 0 30 5 17 5 30 0 30 -5 0 -5 13 0 30 5 17 5 30 0 30 -5 0
-5 13 0 30 5 17 5 30 0 30 -5 0 -5 13 0 30 5 17 5 30 0 30 -5 0 -5 13 0 30 5
17 6 30 2 30 -8 0 -8 68 1 76 3 3 1 19 -3 35 -5 17 -5 31 1 35 5 3 7 10 4 15
-4 5 -1 9 4 9 6 0 11 7 11 15 0 37 78 122 138 151 19 9 53 18 75 20 22 2 43 6
46 10 3 3 7 0 9 -5 2 -6 8 -9 13 -6z m2599 3 c0 4 11 7 25 7 14 0 25 -3 25 -7
0 -4 11 -3 25 2 17 6 25 6 25 -1 0 -6 5 -7 11 -4 15 10 78 12 73 3 -3 -5 6 -4
20 2 16 6 26 6 26 0 0 -6 9 -6 24 0 15 5 27 5 34 -2 7 -7 16 -6 30 1 15 8 23
8 27 1 4 -7 11 -7 18 -2 7 5 21 6 32 2 11 -4 30 -4 43 1 14 5 22 5 22 -2 0 -6
7 -6 19 1 14 7 22 7 27 -1 4 -7 10 -7 16 -1 6 6 20 7 32 3 11 -5 30 -5 41 -1
11 4 25 3 32 -2 7 -5 14 -5 17 1 5 7 15 7 32 1 16 -7 23 -6 19 0 -3 5 22 0 55
-12 69 -25 142 -89 166 -146 8 -20 17 -59 20 -87 3 -27 7 -56 9 -62 2 -7 1
-13 -4 -13 -5 0 -5 -18 -1 -40 4 -22 4 -43 0 -45 -4 -3 -4 -21 0 -40 4 -19 4
-35 0 -35 -4 0 -4 -16 0 -35 4 -19 4 -37 0 -40 -4 -2 -4 -24 0 -47 5 -24 8
-44 8 -45 1 -2 -3 -16 -8 -31 -4 -16 -4 -35 0 -42 4 -7 4 -25 0 -40 -4 -15 -4
-33 0 -40 4 -7 4 -25 0 -40 -4 -15 -4 -33 0 -40 4 -7 4 -26 0 -41 -5 -16 -5
-31 0 -34 4 -3 4 -20 0 -39 -4 -19 -6 -37 -3 -39 7 -8 -19 -97 -28 -97 -5 0
-9 -6 -9 -12 0 -20 -51 -72 -97 -101 -24 -15 -43 -24 -43 -21 0 4 -7 1 -15 -6
-8 -7 -15 -10 -15 -7 0 3 -13 2 -30 -3 -17 -5 -30 -5 -30 0 0 5 -13 5 -30 0
-17 -5 -30 -5 -30 0 0 5 -13 5 -30 0 -17 -5 -32 -5 -35 0 -3 5 -16 5 -30 0
-15 -6 -27 -6 -30 0 -3 6 -15 6 -30 0 -15 -6 -27 -6 -30 0 -3 6 -15 6 -29 0
-13 -5 -27 -6 -30 -3 -8 8 -102 7 -116 -2 -5 -3 -10 -2 -10 4 0 6 -11 6 -30 1
-16 -5 -32 -5 -35 0 -3 5 -19 5 -35 0 -16 -5 -32 -5 -35 0 -3 5 -19 5 -35 0
-17 -5 -32 -5 -35 0 -3 5 -15 6 -28 1 -12 -5 -32 -5 -44 0 -13 5 -25 4 -28 -1
-4 -7 -13 -7 -24 0 -10 5 -20 7 -23 5 -7 -8 -70 16 -103 39 -74 52 -112 114
-121 201 -3 27 -7 56 -9 63 -2 6 -1 12 4 12 5 0 5 18 1 40 -4 22 -4 43 0 45 4
3 4 21 0 40 -4 19 -4 35 0 35 4 0 4 16 0 35 -4 19 -4 37 0 40 4 2 4 22 0 42
-3 21 -7 41 -8 45 0 4 3 21 8 36 4 16 4 35 0 42 -4 7 -4 25 0 40 4 15 4 33 0
40 -4 7 -4 25 0 40 4 15 4 33 0 40 -4 7 -4 26 0 41 5 17 5 31 -1 35 -5 3 -7 9
-5 13 3 3 7 32 10 62 8 96 49 159 138 215 28 18 56 27 90 28 26 0 48 4 48 8 0
4 14 3 30 -2 17 -5 30 -6 30 -2z"/>
</g>
</svg>
